<svg xmlns="http://www.w3.org/2000/svg" width="1240" height="1240" viewBox="0 0 1240 1240" version="1.1">
	<path d="M 480 4 C 479.175 4.533, 476.977 4.976, 475.116 4.985 C 473.255 4.993, 470.105 5.428, 468.116 5.952 C 466.127 6.476, 460.450 7.876, 455.500 9.063 C 393.190 24.012, 337.525 67.683, 307.724 125 C 299.259 141.279, 288.927 168.455, 290.336 170.734 C 290.658 171.256, 293.977 172.457, 297.711 173.405 C 301.445 174.353, 305.272 175.544, 306.216 176.051 C 309.935 178.052, 325.144 181.266, 326.115 180.256 C 326.514 179.840, 328.055 175.675, 329.539 171 C 331.022 166.325, 332.633 162.072, 333.118 161.550 C 333.603 161.028, 334 159.952, 334 159.160 C 334 156.876, 344.185 137.319, 350.229 128 C 360.959 111.452, 370.355 100.551, 384.256 88.521 C 411.725 64.750, 441.499 50.254, 476.500 43.611 C 502.856 38.608, 529.763 39.471, 556.500 46.175 C 562.602 47.705, 577.372 52.300, 578.500 53.018 C 579.050 53.369, 581.750 54.483, 584.500 55.495 C 590.491 57.699, 604.382 64.914, 612 69.780 C 635.264 84.640, 657.657 107.095, 672.385 130.334 C 677.982 139.165, 687.491 159.447, 690.512 169 C 691.991 173.675, 693.554 178.175, 693.986 179 C 695.034 181.001, 700.062 180.537, 709.258 177.592 C 713.241 176.316, 719.538 174.469, 723.250 173.487 C 729.751 171.769, 730 171.589, 729.995 168.602 C 729.990 165.358, 726.515 154.942, 720.939 141.452 C 704.740 102.264, 673.602 65.036, 635.976 39.870 C 620.472 29.500, 594.644 17.280, 578 12.440 C 562.610 7.965, 549.192 5.002, 544.309 5.001 C 542.554 5, 540.840 4.550, 540.500 4 C 539.680 2.674, 482.053 2.674, 480 4 M 1053 38.553 C 1036.197 40.893, 1024.988 44.999, 1012.022 53.567 C 990.430 67.836, 975.811 88.738, 969.406 114.500 C 966.969 124.305, 966.955 147.846, 969.382 157.500 C 974.869 179.330, 988.046 200.223, 1004.130 212.600 L 1010 217.117 1010 391.023 C 1010 561.936, 1010.033 564.947, 1011.934 565.965 C 1013.992 567.066, 1044.699 567.436, 1047.418 566.393 C 1048.852 565.843, 1049 550.287, 1049 400.393 L 1049 235 1065.500 235 L 1082 235 1082 399.878 C 1082 534.285, 1082.241 564.955, 1083.305 565.838 C 1084.645 566.950, 1114.371 567.350, 1118.750 566.315 L 1121 565.783 1121 391.450 L 1121 217.117 1126.842 212.622 C 1140.249 202.305, 1154.554 182.108, 1158.800 167.500 C 1162.200 155.803, 1163 152.339, 1163 149.318 C 1163 147.493, 1163.450 146, 1164 146 C 1164.603 146, 1165 141.833, 1165 135.500 C 1165 129.167, 1164.603 125, 1164 125 C 1163.450 125, 1162.989 123.763, 1162.976 122.250 C 1162.955 119.796, 1160.961 111.571, 1158.114 102.201 C 1156.500 96.889, 1148.497 82.494, 1143.670 76.221 C 1133.052 62.422, 1117.121 50.473, 1101.500 44.590 C 1090.400 40.409, 1085.966 39.332, 1074.500 38.029 C 1064.175 36.855, 1065.418 36.825, 1053 38.553 M 486 76.155 C 462.519 80.930, 449.835 85.534, 431.500 95.938 C 417.162 104.073, 396.276 122.283, 386.661 135.030 C 374.144 151.625, 364.867 170, 369.005 170 C 369.558 170, 372.342 171.125, 375.192 172.500 C 378.042 173.875, 380.965 175, 381.687 175 C 383.442 175, 383.342 177.274, 381.389 181.782 C 380.504 183.827, 379.418 186.850, 378.976 188.500 C 378.535 190.150, 377.398 194.200, 376.450 197.500 C 375.503 200.800, 374.451 205.300, 374.114 207.500 L 373.500 211.500 246 212 L 118.500 212.500 118.500 640.500 L 118.500 1068.500 127 1069 L 135.500 1069.500 135.500 1086.500 L 135.500 1103.500 124.277 1104 L 113.053 1104.500 95.176 1122 L 77.298 1139.500 77.149 1189.750 L 77 1240 510.500 1240 C 856.628 1240, 944.002 1239.748, 944.010 1238.750 C 944.341 1198.059, 943.810 1141.528, 943.084 1140.220 C 942.558 1139.274, 934.447 1130.850, 925.058 1121.500 L 907.987 1104.500 895.911 1104 L 883.836 1103.500 883.837 1086.500 L 883.837 1069.500 892.669 1069.223 C 899.538 1069.008, 901.780 1068.574, 902.759 1067.270 C 903.752 1065.947, 904.012 1042.996, 903.991 958.230 C 903.976 899.180, 904.224 850.446, 904.541 849.933 C 904.863 849.412, 912.943 849, 922.820 849 L 940.521 849 958.011 831.491 L 975.500 813.982 976 783.241 L 976.500 752.500 1067.277 752.245 L 1158.054 751.989 1159.046 749.379 C 1159.679 747.715, 1159.941 720.860, 1159.769 675.347 C 1159.535 613.143, 1159.306 603.806, 1158 602.988 C 1157.112 602.433, 1130.796 602.007, 1093.500 601.945 C 1058.850 601.887, 1030.050 601.818, 1029.500 601.793 C 1028.950 601.767, 1028.050 601.856, 1027.500 601.991 C 1026.950 602.126, 1015.138 602.184, 1001.250 602.118 L 976 602 976 571.740 L 976 541.480 957.750 523.259 L 939.500 505.039 921.729 504.769 L 903.959 504.500 903.989 359.381 C 904.015 238.172, 903.795 214.075, 902.659 213.132 C 901.663 212.306, 867.233 212, 774.491 211.992 C 682.818 211.985, 647.312 211.674, 646.342 210.869 C 645.604 210.256, 645 208.482, 645 206.926 C 645 202.681, 641.193 188.537, 638.348 182.210 C 637.534 180.401, 637.011 178.230, 637.184 177.387 C 637.358 176.543, 640.799 174.477, 644.831 172.796 C 648.864 171.115, 652.410 169.095, 652.713 168.306 C 654.129 164.616, 637.259 137.917, 625.545 125.308 C 606.431 104.734, 579.073 87.479, 555.500 81.131 C 543.885 78.002, 539.965 77.062, 534.440 76.079 C 527.232 74.796, 492.415 74.851, 486 76.155 M 469 148.923 L 462.500 149.500 461.684 166.317 C 461.074 178.876, 461.168 183.498, 462.056 184.567 C 463.634 186.469, 495.921 186.679, 497.800 184.800 C 499.331 183.269, 499.475 152.756, 497.965 149.934 C 497.031 148.189, 495.884 148.017, 486.215 148.173 C 480.322 148.268, 472.575 148.605, 469 148.923 M 523.226 148.839 C 522.255 149.456, 522.017 153.901, 522.226 167.574 L 522.500 185.500 540.500 185.500 L 558.500 185.500 558.774 168.132 C 558.963 156.170, 558.691 150.333, 557.902 149.382 C 557.012 148.309, 553.143 148.003, 540.628 148.015 C 531.757 148.024, 523.927 148.394, 523.226 148.839 M 830.416 475.917 C 830.187 476.146, 829.993 479.971, 829.985 484.417 C 829.976 488.863, 829.617 493.055, 829.186 493.733 C 827.999 495.601, 192.060 495.668, 190.810 493.800 C 190.332 493.085, 190.054 489.263, 190.193 485.306 C 190.331 481.349, 190.161 477.827, 189.814 477.480 C 188.908 476.574, 156.001 476.350, 155.996 477.250 C 155.991 478.246, 155.991 875.712, 155.996 877 C 156.002 878.586, 189.980 878.336, 190.076 876.750 C 190.118 876.063, 190.094 872.575, 190.023 869 C 189.945 865.035, 190.403 861.814, 191.197 860.741 C 192.436 859.068, 208.135 858.982, 509.901 858.994 C 737.387 859.002, 827.674 859.314, 828.615 860.095 C 829.476 860.810, 830.026 864.283, 830.214 870.189 L 830.500 879.194 846.969 879.052 C 858.591 878.952, 863.663 878.555, 864.203 877.705 C 865.423 875.786, 865.191 477.236, 863.970 476.481 C 862.837 475.781, 831.086 475.247, 830.416 475.917 M 190.462 530.250 C 190.200 530.938, 190.102 597.425, 190.243 678 L 190.500 824.500 510.500 824.500 L 830.500 824.500 830.753 677.561 C 830.955 560.670, 830.750 530.459, 829.753 529.826 C 829.064 529.389, 685.048 529.024, 509.719 529.015 C 255.603 529.003, 190.841 529.254, 190.462 530.250 M 308.500 568 L 228.500 568.500 228.500 677.290 L 228.500 786.079 309.500 786.290 L 390.500 786.500 390.500 677.083 C 390.500 604.861, 390.160 567.638, 389.500 567.583 C 388.950 567.538, 352.500 567.725, 308.500 568 M 509.500 568 L 429.500 568.500 429.246 677.131 L 428.991 785.761 482.246 786.449 C 511.536 786.827, 548.100 786.993, 563.500 786.818 L 591.500 786.500 591.754 677.876 C 591.956 591.674, 591.750 569.071, 590.754 568.376 C 590.047 567.882, 554.602 567.718, 509.500 568 M 631.673 568.661 C 631.303 569.031, 631 618.030, 631 677.548 L 631 785.762 683.250 786.449 C 711.987 786.827, 748.325 786.993, 764 786.818 L 792.500 786.500 792.500 677.500 L 792.500 568.500 712.423 568.244 C 668.380 568.103, 632.042 568.291, 631.673 568.661 M 263.014 602.386 C 261.499 603.901, 261.643 658.662, 263.165 659.602 C 264.468 660.407, 295.531 660.243, 298.213 659.416 C 299.639 658.977, 299.974 657.348, 300.213 649.694 L 300.500 640.500 309.250 640.211 L 318 639.922 318 654.407 L 318 668.891 304.478 680.611 C 297.040 687.057, 290.726 693.269, 290.447 694.415 C 290.168 695.562, 290.065 709.100, 290.219 724.500 L 290.500 752.500 308.927 752.773 C 322.986 752.982, 327.553 752.745, 328.195 751.773 C 328.657 751.073, 328.999 741.725, 328.953 731 C 328.907 720.275, 328.899 711.025, 328.935 710.444 C 328.971 709.863, 333.163 705.846, 338.250 701.518 C 343.337 697.189, 349.413 691.833, 351.750 689.615 L 356 685.584 356 644.260 C 356 612.083, 355.723 602.848, 354.750 602.535 C 351.738 601.564, 263.978 601.422, 263.014 602.386 M 463.992 602.005 C 463.322 602.419, 463.060 612.460, 463.234 631.069 L 463.500 659.500 480.868 659.774 C 492.557 659.959, 498.676 659.683, 499.581 658.933 C 500.470 658.195, 501.022 654.886, 501.212 649.159 L 501.500 640.500 510.277 640.211 L 519.054 639.921 518.777 654.689 L 518.500 669.456 505.566 680.578 C 498.452 686.696, 492.296 692.556, 491.886 693.601 C 490.994 695.875, 490.737 749.150, 491.607 751.418 C 492.130 752.781, 494.757 753, 510.607 753 C 527.435 753, 529.005 752.851, 529.058 751.250 C 529.090 750.288, 529.065 740.817, 529.003 730.205 L 528.891 710.909 532.220 707.705 C 534.051 705.942, 540.375 700.300, 546.274 695.168 L 557 685.835 557 644.386 C 557 612.108, 556.723 602.848, 555.750 602.535 C 553.613 601.846, 465.076 601.335, 463.992 602.005 M 665.013 601.992 C 664.316 602.423, 664.057 612.109, 664.234 631.069 L 664.500 659.500 681.868 659.774 C 693.830 659.963, 699.667 659.691, 700.618 658.902 C 701.570 658.112, 702.005 655.381, 702.015 650.128 C 702.024 645.932, 702.400 641.917, 702.852 641.205 C 703.439 640.280, 705.932 639.994, 711.587 640.205 L 719.500 640.500 719.777 654.686 L 720.054 668.872 706.527 680.531 L 693 692.191 693 722.596 L 693 753 711.500 753 L 730 753 730 731.605 L 730 710.210 743.521 698.500 C 750.957 692.060, 757.482 685.967, 758.021 684.961 C 759.573 682.061, 759.318 605.788, 757.750 603.788 C 756.648 602.382, 751.148 602.144, 711.278 601.770 C 686.407 601.537, 665.587 601.637, 665.013 601.992 M 977 676.894 L 977 712.762 1030.250 713.453 C 1059.537 713.833, 1091.825 713.999, 1102 713.822 L 1120.500 713.500 1120.762 677.251 L 1121.025 641.001 1049.012 641.014 L 977 641.026 977 676.894 M 121.757 1149.798 L 113.963 1157.382 114.232 1179.941 L 114.500 1202.500 510.250 1202.751 L 906 1203.003 906 1179.824 L 906 1156.645 898.627 1149.272 L 891.253 1141.899 510.402 1142.056 L 129.551 1142.213 121.757 1149.798" stroke="none" fill="black" fill-rule="evenodd"/>
</svg>